<svg width="613" height="48" viewBox="0 0 613 48" fill="none" xmlns="http://www.w3.org/2000/svg">
<g clip-path="url(#clip0)">
<path d="M4.408 45.592C4.408 46.2747 4.19467 46.7867 3.768 47.128C3.34133 47.512 2.85067 47.704 2.296 47.704C1.69867 47.704 1.18667 47.512 0.76 47.128C0.333334 46.7867 0.12 46.2747 0.12 45.592V2.584C0.12 1.98667 0.333334 1.47467 0.76 1.048C1.18667 0.62133 1.67733 0.407997 2.232 0.407997H19.128C21.9867 0.407997 24.5467 1.09066 26.808 2.456C29.0693 3.82133 30.8187 5.656 32.056 7.96C33.336 10.2213 33.976 12.696 33.976 15.384C33.976 18.6693 33.1013 21.5707 31.352 24.088C33.144 26.6907 34.04 29.528 34.04 32.6C34.04 35.2027 33.4 37.6773 32.12 40.024C30.84 42.328 29.0693 44.2053 26.808 45.656C24.5467 47.064 22.008 47.768 19.192 47.768H10.872C10.1893 47.768 9.656 47.5547 9.272 47.128C8.93067 46.7013 8.76 46.1893 8.76 45.592C8.76 44.9947 8.93067 44.4827 9.272 44.056C9.656 43.6293 10.1893 43.416 10.872 43.416H19.192C21.3253 43.416 23.1813 42.904 24.76 41.88C26.3387 40.8133 27.5547 39.448 28.408 37.784C29.2613 36.12 29.688 34.3707 29.688 32.536C29.688 29.7627 28.8133 27.48 27.064 25.688C26.5947 25.2187 26.36 24.7493 26.36 24.28C26.36 23.9813 26.4453 23.6613 26.616 23.32C26.8293 22.936 27.0853 22.552 27.384 22.168C28.0667 21.1867 28.6213 20.2053 29.048 19.224C29.4747 18.2427 29.688 17.0053 29.688 15.512C29.688 13.592 29.2187 11.8 28.28 10.136C27.3413 8.472 26.0613 7.17067 24.44 6.232C22.8187 5.25067 21.048 4.76 19.128 4.76H4.408V45.592ZM10.872 13.336C10.1893 13.336 9.656 13.1227 9.272 12.696C8.93067 12.2693 8.76 11.7573 8.76 11.16C8.76 10.6053 8.93067 10.1147 9.272 9.688C9.656 9.26133 10.1893 9.048 10.872 9.048H18.36C20.28 9.048 21.8373 9.70933 23.032 11.032C24.2693 12.312 24.888 13.8267 24.888 15.576C24.888 17.368 24.248 18.8827 22.968 20.12C22.2853 20.76 21.5813 21.2293 20.856 21.528C20.1733 21.784 19.4053 21.9333 18.552 21.976C17.6987 21.976 16.8453 21.976 15.992 21.976C15.3093 21.976 14.776 21.7627 14.392 21.336C14.0507 20.9093 13.88 20.3973 13.88 19.8C13.88 19.2453 14.0507 18.7547 14.392 18.328C14.776 17.9013 15.3093 17.688 15.992 17.688C16.2053 17.688 16.76 17.7093 17.656 17.752C18.552 17.752 19.256 17.5813 19.768 17.24C20.3227 16.8987 20.6 16.3227 20.6 15.512C20.6 14.872 20.3867 14.36 19.96 13.976C19.576 13.5493 19.0427 13.336 18.36 13.336H10.872ZM18.36 39.128C18.1467 39.128 17.6133 39.1493 16.76 39.192C15.9067 39.192 15.2027 39.0213 14.648 38.68C14.0933 38.3387 13.816 37.7627 13.816 36.952C13.816 36.056 14.0933 35.48 14.648 35.224C15.2453 34.968 16.0987 34.84 17.208 34.84C18.3173 34.84 19.1493 34.712 19.704 34.456C20.3013 34.2 20.6 33.6027 20.6 32.664C20.6 32.024 20.3867 31.512 19.96 31.128C19.576 30.7013 19.0427 30.488 18.36 30.488H10.872C10.1893 30.488 9.656 30.2747 9.272 29.848C8.93067 29.4213 8.76 28.9307 8.76 28.376C8.76 27.7787 8.93067 27.288 9.272 26.904C9.656 26.4773 10.1893 26.264 10.872 26.264H18.36C20.28 26.264 21.8373 26.904 23.032 28.184C24.2693 29.464 24.888 30.9787 24.888 32.728C24.888 34.4773 24.248 35.992 22.968 37.272C21.7307 38.5093 20.1947 39.128 18.36 39.128ZM46.4705 45.528C46.4705 46.2107 46.2572 46.7227 45.8305 47.064C45.4038 47.448 44.9132 47.64 44.3585 47.64C43.7612 47.64 43.2492 47.448 42.8225 47.064C42.3958 46.7227 42.1825 46.2107 42.1825 45.528V2.712C42.1825 2.15733 42.3958 1.66666 42.8225 1.24C43.2492 0.813332 43.7612 0.599998 44.3585 0.599998H61.1905C64.0492 0.599998 66.6092 1.304 68.8705 2.712C71.1318 4.12 72.8812 5.99733 74.1185 8.344C75.3558 10.648 75.9745 13.1013 75.9745 15.704C75.9745 17.5813 75.6118 19.416 74.8865 21.208C74.2038 23 73.1372 24.6427 71.6865 26.136C69.7238 28.0987 67.4838 29.4 64.9665 30.04L74.8865 44.248C75.1425 44.632 75.2705 45.0373 75.2705 45.464C75.2705 46.0613 75.0358 46.5733 74.5665 47C74.1398 47.4693 73.6278 47.704 73.0305 47.704C72.4332 47.704 71.8998 47.384 71.4305 46.744L59.5905 29.784C59.2492 29.4 59.0785 28.9307 59.0785 28.376C59.0785 27.7787 59.2918 27.288 59.7185 26.904C60.1452 26.4773 60.6358 26.264 61.1905 26.264C63.2385 26.264 65.0518 25.752 66.6305 24.728C68.2518 23.704 69.4892 22.36 70.3425 20.696C71.2385 19.032 71.6865 17.2827 71.6865 15.448C71.6865 12.5467 70.6625 10.0507 68.6145 7.96C67.6332 6.97867 66.5025 6.232 65.2225 5.72C63.9425 5.16533 62.5985 4.888 61.1905 4.888H46.4705V45.528ZM60.4865 21.976C60.3158 21.976 59.9958 21.9973 59.5265 22.04C59.0998 22.04 58.7158 22.0187 58.3745 21.976C57.5638 21.9333 56.9238 21.6987 56.4545 21.272C56.0278 20.8027 55.8145 20.2907 55.8145 19.736C55.8145 19.1813 56.0278 18.712 56.4545 18.328C56.9238 17.944 57.5638 17.752 58.3745 17.752C58.5878 17.752 59.1212 17.7733 59.9745 17.816C60.8705 17.816 61.5532 17.6453 62.0225 17.304C62.4918 16.92 62.7265 16.344 62.7265 15.576C62.7265 14.936 62.5132 14.424 62.0865 14.04C61.6598 13.6133 61.1265 13.4 60.4865 13.4H52.8705C52.1878 13.4 51.6545 13.1867 51.2705 12.76C50.9292 12.3333 50.7585 11.8213 50.7585 11.224C50.7585 10.6693 50.9292 10.1787 51.2705 9.752C51.6545 9.32533 52.1878 9.112 52.8705 9.112H60.4865C62.3638 9.112 63.8998 9.77333 65.0945 11.096C66.3318 12.4187 66.9505 13.9333 66.9505 15.64C66.9505 17.432 66.3105 18.9467 65.0305 20.184C63.7932 21.3787 62.2785 21.976 60.4865 21.976ZM64.4545 44.248C64.7105 44.5467 64.8385 44.952 64.8385 45.464C64.8385 46.0613 64.6038 46.5733 64.1345 47C63.7078 47.4693 63.1958 47.704 62.5985 47.704C61.9585 47.704 61.4038 47.384 60.9345 46.744L55.0465 38.232V45.528C55.0465 46.2107 54.8332 46.7227 54.4065 47.064C53.9798 47.448 53.4892 47.64 52.9345 47.64C52.3372 47.64 51.8252 47.448 51.3985 47.064C50.9718 46.7227 50.7585 46.2107 50.7585 45.528V31.576C50.7585 30.8933 50.9718 30.36 51.3985 29.976C51.8252 29.5493 52.3158 29.336 52.8705 29.336C53.5958 29.336 54.1932 29.6347 54.6625 30.232L64.4545 44.248ZM128.52 16.728C128.563 16.856 128.584 17.0693 128.584 17.368C128.584 17.88 128.456 18.328 128.2 18.712C127.944 19.0533 127.581 19.288 127.112 19.416C126.771 19.5013 126.536 19.544 126.408 19.544C125.939 19.544 125.512 19.3947 125.128 19.096C124.744 18.7973 124.488 18.4347 124.36 18.008C122.995 13.8267 120.52 10.4347 116.936 7.832C115.229 6.59466 113.352 5.656 111.304 5.016C109.256 4.33333 107.123 3.992 104.904 3.992C100.68 3.992 97.0533 4.93066 94.024 6.808C90.9947 8.68533 88.712 11.16 87.176 14.232C85.64 17.304 84.872 20.568 84.872 24.024C84.872 27.48 85.64 30.744 87.176 33.816C88.712 36.8453 90.9947 39.32 94.024 41.24C97.0533 43.1173 100.68 44.056 104.904 44.056C109.427 44.056 113.437 42.776 116.936 40.216C120.52 37.6987 122.995 34.3067 124.36 30.04C124.488 29.5707 124.744 29.208 125.128 28.952C125.512 28.696 125.96 28.568 126.472 28.568C127.112 28.568 127.624 28.7813 128.008 29.208C128.392 29.6347 128.584 30.1467 128.584 30.744C128.584 31.0427 128.563 31.256 128.52 31.384C127.709 33.8587 126.536 36.1627 125 38.296C123.464 40.4293 121.651 42.2427 119.56 43.736C115.08 46.8933 110.195 48.472 104.904 48.472C99.7413 48.472 95.3253 47.32 91.656 45.016C87.9867 42.712 85.2133 39.704 83.336 35.992C81.5013 32.2373 80.584 28.248 80.584 24.024C80.584 19.8 81.5013 15.832 83.336 12.12C85.2133 8.408 87.9867 5.4 91.656 3.096C95.3253 0.791999 99.7413 -0.360001 104.904 -0.360001C110.28 -0.360001 115.165 1.19733 119.56 4.312C121.651 5.848 123.464 7.68266 125 9.816C126.536 11.9067 127.709 14.2107 128.52 16.728ZM91.72 31.768C91.5067 31.3413 91.4 30.9787 91.4 30.68C91.4 29.912 91.7627 29.2933 92.488 28.824C92.8293 28.6533 93.192 28.568 93.576 28.568C94.4293 28.568 95.048 28.9307 95.432 29.656C96.5413 31.4907 97.9067 32.8347 99.528 33.688C101.149 34.712 102.941 35.224 104.904 35.224C106.44 35.224 107.869 34.9467 109.192 34.392C110.515 33.7947 111.667 32.984 112.648 31.96C113.672 30.936 114.461 29.7413 115.016 28.376C115.613 27.0107 115.912 25.56 115.912 24.024C115.912 22.488 115.613 21.0373 115.016 19.672C114.461 18.3067 113.672 17.1333 112.648 16.152C111.667 15.128 110.493 14.3387 109.128 13.784C107.805 13.1867 106.397 12.888 104.904 12.888C102.941 12.888 101.149 13.3787 99.528 14.36C97.864 15.3413 96.4987 16.6853 95.432 18.392C95.2613 18.776 94.984 19.0747 94.6 19.288C94.2587 19.4587 93.896 19.544 93.512 19.544C92.9147 19.544 92.4027 19.3307 91.976 18.904C91.592 18.4773 91.4 17.9867 91.4 17.432C91.4 17.0907 91.5067 16.7067 91.72 16.28C93.0853 13.848 94.9413 11.9493 97.288 10.584C99.6347 9.21867 102.173 8.536 104.904 8.536C106.995 8.536 108.979 8.94133 110.856 9.752C112.733 10.52 114.397 11.6293 115.848 13.08C117.213 14.5307 118.28 16.1947 119.048 18.072C119.859 19.9493 120.264 21.9333 120.264 24.024C120.264 26.1147 119.859 28.0987 119.048 29.976C118.28 31.8533 117.213 33.5173 115.848 34.968C114.397 36.4187 112.733 37.5493 110.856 38.36C109.021 39.1707 107.037 39.576 104.904 39.576C102.301 39.576 99.7627 38.8933 97.288 37.528C94.9413 36.0773 93.0853 34.1573 91.72 31.768ZM145.373 3.992C145.117 3.608 144.989 3.18133 144.989 2.712C144.989 1.98666 145.288 1.432 145.885 1.048C146.226 0.749331 146.632 0.599998 147.101 0.599998C147.442 0.599998 147.762 0.685332 148.061 0.855999C148.402 1.02667 148.658 1.26133 148.829 1.56L163.549 22.616V2.712C163.549 2.15733 163.762 1.688 164.189 1.304C164.616 0.877331 165.128 0.663998 165.725 0.663998C166.322 0.663998 166.813 0.877331 167.197 1.304C167.624 1.688 167.837 2.15733 167.837 2.712V29.336C167.837 30.1467 167.517 30.744 166.877 31.128C166.493 31.384 166.088 31.512 165.661 31.512C164.978 31.512 164.402 31.2133 163.933 30.616L145.373 3.992ZM141.469 45.528C141.469 46.1253 141.256 46.6373 140.829 47.064C140.445 47.4907 139.954 47.704 139.357 47.704C138.802 47.704 138.312 47.4907 137.885 47.064C137.458 46.6373 137.245 46.1253 137.245 45.528V2.712C137.245 2.15733 137.437 1.688 137.821 1.304C138.248 0.877331 138.76 0.663998 139.357 0.663998C139.954 0.663998 140.445 0.855998 140.829 1.24C141.256 1.624 141.469 2.11466 141.469 2.712V45.528ZM176.413 45.528C176.413 46.1253 176.2 46.6373 175.773 47.064C175.346 47.4907 174.834 47.704 174.237 47.704C173.682 47.704 173.192 47.4907 172.765 47.064C172.338 46.6373 172.125 46.1253 172.125 45.528V2.712C172.125 2.15733 172.317 1.688 172.701 1.304C173.128 0.877331 173.64 0.663998 174.237 0.663998C174.834 0.663998 175.346 0.877331 175.773 1.304C176.2 1.688 176.413 2.15733 176.413 2.712V45.528ZM168.285 44.312C168.541 44.696 168.669 45.08 168.669 45.464C168.669 46.232 168.37 46.8507 167.773 47.32C167.389 47.576 166.984 47.704 166.557 47.704C165.874 47.704 165.277 47.384 164.765 46.744L150.045 25.688V45.528C150.045 46.1253 149.832 46.616 149.405 47C148.978 47.4267 148.466 47.64 147.869 47.64C147.314 47.64 146.824 47.4267 146.397 47C146.013 46.616 145.821 46.1253 145.821 45.528V18.904C145.821 18.0933 146.12 17.5173 146.717 17.176C147.058 16.8773 147.464 16.728 147.933 16.728C148.701 16.728 149.277 17.048 149.661 17.688L168.285 44.312ZM235.705 1.688C235.876 1.26133 236.132 0.94133 236.473 0.727997C236.857 0.471998 237.262 0.343998 237.689 0.343998C238.286 0.343998 238.777 0.557331 239.161 0.983997C239.588 1.41066 239.801 1.90133 239.801 2.456C239.801 2.75467 239.737 3.032 239.609 3.288L221.433 47.96C221.049 48.856 220.388 49.304 219.449 49.304C219.065 49.304 218.681 49.176 218.297 48.92C217.913 48.7067 217.636 48.3867 217.465 47.96L210.873 31.768L204.281 47.96C204.11 48.3867 203.854 48.7067 203.513 48.92C203.172 49.176 202.788 49.304 202.361 49.304C201.422 49.304 200.761 48.8347 200.377 47.896L182.137 3.288C182.052 2.94666 182.009 2.712 182.009 2.584C182.009 2.15733 182.116 1.77333 182.329 1.432C182.585 1.048 182.926 0.749332 183.353 0.535999C183.609 0.407998 183.886 0.343998 184.185 0.343998C184.612 0.343998 184.996 0.471998 185.337 0.727997C185.678 0.94133 185.934 1.26133 186.105 1.688L202.361 41.56L208.889 25.496C209.358 24.5147 210.041 24.024 210.937 24.024C211.321 24.024 211.705 24.152 212.089 24.408C212.473 24.664 212.75 25.0267 212.921 25.496L219.513 41.56L235.705 1.688ZM191.801 3.288C191.716 3.11733 191.673 2.86133 191.673 2.52C191.673 2.09333 191.78 1.70933 191.993 1.368C192.249 0.983996 192.59 0.706664 193.017 0.535999C193.273 0.407998 193.55 0.343998 193.849 0.343998C194.276 0.343998 194.66 0.471998 195.001 0.727997C195.342 0.94133 195.598 1.26133 195.769 1.688L202.361 17.88L208.953 1.688C209.124 1.26133 209.38 0.94133 209.721 0.727997C210.062 0.471998 210.446 0.343998 210.873 0.343998C211.172 0.343998 211.449 0.407998 211.705 0.535999C212.174 0.706664 212.58 1.09066 212.921 1.688L219.513 17.88L226.105 1.688C226.276 1.26133 226.532 0.94133 226.873 0.727997C227.214 0.471998 227.598 0.343998 228.025 0.343998C228.622 0.343998 229.134 0.557331 229.561 0.983997C229.988 1.41066 230.201 1.92266 230.201 2.52C230.201 2.776 230.137 3.032 230.009 3.288L221.433 24.28C221.177 24.92 220.793 25.3253 220.281 25.496C219.94 25.5813 219.684 25.624 219.513 25.624C219.086 25.624 218.681 25.5173 218.297 25.304C217.913 25.048 217.636 24.7067 217.465 24.28L210.873 8.152L204.281 24.28C204.025 24.92 203.662 25.3253 203.193 25.496C202.852 25.5813 202.596 25.624 202.425 25.624C201.956 25.624 201.529 25.5173 201.145 25.304C200.804 25.048 200.548 24.7067 200.377 24.28L191.801 3.288ZM269.626 43.352C270.223 43.352 270.735 43.5653 271.162 43.992C271.589 44.4187 271.802 44.9307 271.802 45.528C271.802 46.1253 271.589 46.616 271.162 47C270.735 47.4267 270.223 47.64 269.626 47.64H247.482C246.927 47.64 246.437 47.4267 246.01 47C245.583 46.5733 245.37 46.0827 245.37 45.528V2.712C245.37 2.11466 245.583 1.624 246.01 1.24C246.437 0.813332 246.927 0.599998 247.482 0.599998H269.626C270.223 0.599998 270.735 0.813332 271.162 1.24C271.589 1.624 271.802 2.11466 271.802 2.712C271.802 3.30933 271.589 3.82133 271.162 4.248C270.735 4.67466 270.223 4.888 269.626 4.888H249.658V43.352H269.626ZM269.626 9.176C270.223 9.176 270.735 9.38933 271.162 9.816C271.589 10.2 271.802 10.6907 271.802 11.288C271.802 11.8853 271.589 12.3973 271.162 12.824C270.735 13.208 270.223 13.4 269.626 13.4H258.17V17.688H265.658C266.255 17.688 266.767 17.9013 267.194 18.328C267.621 18.7547 267.834 19.2667 267.834 19.864C267.834 20.4613 267.621 20.9733 267.194 21.4C266.767 21.784 266.255 21.976 265.658 21.976H256.058C255.461 21.976 254.949 21.784 254.522 21.4C254.095 20.9733 253.882 20.4613 253.882 19.864V11.288C253.882 10.6907 254.095 10.2 254.522 9.816C254.949 9.38933 255.461 9.176 256.058 9.176H269.626ZM265.658 26.264C266.255 26.264 266.767 26.4773 267.194 26.904C267.621 27.288 267.834 27.7787 267.834 28.376C267.834 28.9733 267.621 29.4853 267.194 29.912C266.767 30.3387 266.255 30.552 265.658 30.552H258.17V34.776H269.626C270.223 34.776 270.735 34.9893 271.162 35.416C271.589 35.8427 271.802 36.3547 271.802 36.952C271.802 37.5493 271.589 38.0613 271.162 38.488C270.735 38.872 270.223 39.064 269.626 39.064H256.058C255.461 39.064 254.949 38.872 254.522 38.488C254.095 38.0613 253.882 37.5493 253.882 36.952V28.376C253.882 27.7787 254.095 27.288 254.522 26.904C254.949 26.4773 255.461 26.264 256.058 26.264H265.658ZM288.498 3.992C288.242 3.608 288.114 3.18133 288.114 2.712C288.114 1.98666 288.413 1.432 289.01 1.048C289.351 0.749331 289.757 0.599998 290.226 0.599998C290.567 0.599998 290.887 0.685332 291.186 0.855999C291.527 1.02667 291.783 1.26133 291.954 1.56L306.674 22.616V2.712C306.674 2.15733 306.887 1.688 307.314 1.304C307.741 0.877331 308.253 0.663998 308.85 0.663998C309.447 0.663998 309.938 0.877331 310.322 1.304C310.749 1.688 310.962 2.15733 310.962 2.712V29.336C310.962 30.1467 310.642 30.744 310.002 31.128C309.618 31.384 309.213 31.512 308.786 31.512C308.103 31.512 307.527 31.2133 307.058 30.616L288.498 3.992ZM284.594 45.528C284.594 46.1253 284.381 46.6373 283.954 47.064C283.57 47.4907 283.079 47.704 282.482 47.704C281.927 47.704 281.437 47.4907 281.01 47.064C280.583 46.6373 280.37 46.1253 280.37 45.528V2.712C280.37 2.15733 280.562 1.688 280.946 1.304C281.373 0.877331 281.885 0.663998 282.482 0.663998C283.079 0.663998 283.57 0.855998 283.954 1.24C284.381 1.624 284.594 2.11466 284.594 2.712V45.528ZM319.538 45.528C319.538 46.1253 319.325 46.6373 318.898 47.064C318.471 47.4907 317.959 47.704 317.362 47.704C316.807 47.704 316.317 47.4907 315.89 47.064C315.463 46.6373 315.25 46.1253 315.25 45.528V2.712C315.25 2.15733 315.442 1.688 315.826 1.304C316.253 0.877331 316.765 0.663998 317.362 0.663998C317.959 0.663998 318.471 0.877331 318.898 1.304C319.325 1.688 319.538 2.15733 319.538 2.712V45.528ZM311.41 44.312C311.666 44.696 311.794 45.08 311.794 45.464C311.794 46.232 311.495 46.8507 310.898 47.32C310.514 47.576 310.109 47.704 309.682 47.704C308.999 47.704 308.402 47.384 307.89 46.744L293.17 25.688V45.528C293.17 46.1253 292.957 46.616 292.53 47C292.103 47.4267 291.591 47.64 290.994 47.64C290.439 47.64 289.949 47.4267 289.522 47C289.138 46.616 288.946 46.1253 288.946 45.528V18.904C288.946 18.0933 289.245 17.5173 289.842 17.176C290.183 16.8773 290.589 16.728 291.058 16.728C291.826 16.728 292.402 17.048 292.786 17.688L311.41 44.312ZM393.317 43.352C393.914 43.352 394.405 43.5653 394.789 43.992C395.216 44.4187 395.429 44.9307 395.429 45.528C395.429 46.1253 395.216 46.616 394.789 47C394.405 47.4267 393.914 47.64 393.317 47.64H368.421C367.824 47.64 367.312 47.4267 366.885 47C366.458 46.616 366.245 46.1253 366.245 45.528V2.712C366.245 2.11466 366.458 1.624 366.885 1.24C367.312 0.813332 367.824 0.599998 368.421 0.599998C369.018 0.599998 369.509 0.813332 369.893 1.24C370.32 1.624 370.533 2.11466 370.533 2.712V43.352H393.317ZM374.821 2.712C374.821 2.11466 375.034 1.624 375.461 1.24C375.888 0.813332 376.378 0.599998 376.933 0.599998C377.53 0.599998 378.042 0.813332 378.469 1.24C378.896 1.624 379.109 2.11466 379.109 2.712V34.776H393.317C393.914 34.776 394.405 34.9893 394.789 35.416C395.216 35.8427 395.429 36.3547 395.429 36.952C395.429 37.5493 395.216 38.0613 394.789 38.488C394.405 38.872 393.914 39.064 393.317 39.064H376.933C376.378 39.064 375.888 38.8507 375.461 38.424C375.034 37.9973 374.821 37.5067 374.821 36.952V2.712ZM403.372 45.912C403.201 46.3387 402.924 46.68 402.54 46.936C402.156 47.1493 401.75 47.256 401.324 47.256C401.153 47.256 400.897 47.2133 400.556 47.128C400.129 46.9573 399.788 46.68 399.532 46.296C399.318 45.912 399.212 45.4853 399.212 45.016C399.212 44.888 399.254 44.6533 399.34 44.312L416.812 0.663998C416.982 0.237331 417.238 -0.104001 417.58 -0.360001C417.964 -0.616002 418.369 -0.744003 418.796 -0.744003C419.052 -0.744003 419.308 -0.680003 419.564 -0.552002C420.118 -0.381335 420.524 0.0239983 420.78 0.663998L438.188 44.312C438.316 44.568 438.38 44.8453 438.38 45.144C438.38 45.5707 438.252 45.976 437.996 46.36C437.782 46.7013 437.462 46.9573 437.036 47.128C436.694 47.2133 436.438 47.256 436.268 47.256C435.841 47.256 435.436 47.128 435.052 46.872C434.668 46.616 434.39 46.296 434.22 45.912L418.796 7.064L403.372 45.912ZM415.66 34.84C415.062 34.84 414.55 34.6267 414.124 34.2C413.74 33.7733 413.548 33.2613 413.548 32.664C413.548 32.0667 413.74 31.576 414.124 31.192C414.55 30.7653 415.062 30.552 415.66 30.552H418.732L416.812 25.816C416.726 25.4747 416.684 25.2187 416.684 25.048C416.684 24.6213 416.79 24.2373 417.003 23.896C417.26 23.512 417.58 23.2347 417.964 23.064C418.22 22.936 418.497 22.872 418.796 22.872C419.222 22.872 419.606 23 419.948 23.256C420.332 23.4693 420.609 23.768 420.78 24.152L423.916 31.832C424.044 32.088 424.108 32.3653 424.108 32.664C424.108 33.2613 423.873 33.7733 423.404 34.2C422.977 34.6267 422.465 34.84 421.868 34.84H415.66ZM412.524 45.912C412.353 46.3387 412.097 46.68 411.756 46.936C411.414 47.1493 411.009 47.256 410.54 47.256C410.369 47.256 410.113 47.2133 409.772 47.128C409.345 46.9573 409.004 46.7013 408.748 46.36C408.534 45.976 408.428 45.5707 408.428 45.144C408.428 44.8453 408.492 44.568 408.62 44.312L410.156 40.408C410.369 40.024 410.646 39.704 410.988 39.448C411.372 39.192 411.756 39.064 412.14 39.064H425.388C425.857 39.064 426.284 39.2133 426.668 39.512C427.052 39.8107 427.308 40.1733 427.436 40.6L428.972 44.312C429.057 44.6533 429.1 44.9093 429.1 45.08C429.1 45.5067 428.972 45.912 428.716 46.296C428.502 46.68 428.204 46.9573 427.82 47.128C427.478 47.2133 427.222 47.256 427.052 47.256C426.582 47.256 426.156 47.1493 425.772 46.936C425.43 46.68 425.174 46.3387 425.004 45.912L423.98 43.416H413.612L412.524 45.912ZM440.144 4.888C439.546 4.888 439.034 4.696 438.608 4.312C438.181 3.88533 437.968 3.37333 437.968 2.776C437.968 2.17866 438.181 1.688 438.608 1.304C439.034 0.877331 439.546 0.663998 440.144 0.663998H470.032C470.629 0.663998 471.12 0.877331 471.504 1.304C471.888 1.688 472.08 2.17866 472.08 2.776C472.08 3.37333 471.866 3.88533 471.44 4.312C471.056 4.696 470.586 4.888 470.032 4.888H440.144ZM440.144 13.4C439.546 13.4 439.034 13.208 438.608 12.824C438.181 12.3973 437.968 11.9067 437.968 11.352C437.968 10.7547 438.181 10.2427 438.608 9.816C439.034 9.38933 439.546 9.176 440.144 9.176H450.768C451.365 9.176 451.877 9.38933 452.304 9.816C452.73 10.2427 452.944 10.7547 452.944 11.352V45.464C452.944 46.0613 452.73 46.5733 452.304 47C451.877 47.4267 451.365 47.64 450.768 47.64C450.17 47.64 449.658 47.4267 449.232 47C448.805 46.5733 448.592 46.0613 448.592 45.464V13.4H440.144ZM470.032 9.176C470.586 9.176 471.056 9.38933 471.44 9.816C471.866 10.2427 472.08 10.7547 472.08 11.352C472.08 11.9067 471.888 12.3973 471.504 12.824C471.12 13.208 470.629 13.4 470.032 13.4H461.456V45.464C461.456 46.0613 461.242 46.5733 460.816 47C460.389 47.4267 459.877 47.64 459.28 47.64C458.682 47.64 458.17 47.4267 457.744 47C457.36 46.5733 457.168 46.0613 457.168 45.464V11.352C457.168 10.7547 457.36 10.2427 457.744 9.816C458.17 9.38933 458.682 9.176 459.28 9.176H470.032ZM483.283 45.528C483.283 46.0827 483.07 46.5733 482.643 47C482.259 47.4267 481.768 47.64 481.171 47.64C480.574 47.64 480.062 47.4267 479.635 47C479.208 46.616 478.995 46.1253 478.995 45.528V2.712C478.995 2.11466 479.208 1.624 479.635 1.24C480.062 0.813332 480.574 0.599998 481.171 0.599998C481.768 0.599998 482.259 0.813332 482.643 1.24C483.07 1.624 483.283 2.11466 483.283 2.712V45.528ZM487.571 2.712C487.571 2.11466 487.784 1.624 488.211 1.24C488.638 0.813332 489.128 0.599998 489.683 0.599998C490.28 0.599998 490.792 0.813332 491.219 1.24C491.646 1.624 491.859 2.11466 491.859 2.712V17.688H500.371V2.712C500.371 2.11466 500.584 1.624 501.011 1.24C501.438 0.813332 501.95 0.599998 502.547 0.599998C503.144 0.599998 503.635 0.813332 504.019 1.24C504.446 1.624 504.659 2.11466 504.659 2.712V19.864C504.659 20.4187 504.446 20.9093 504.019 21.336C503.635 21.7627 503.144 21.976 502.547 21.976H489.683C489.128 21.976 488.638 21.7627 488.211 21.336C487.784 20.9093 487.571 20.4187 487.571 19.864V2.712ZM508.947 2.712C508.947 2.11466 509.16 1.624 509.587 1.24C510.014 0.813332 510.504 0.599998 511.059 0.599998C511.656 0.599998 512.168 0.813332 512.595 1.24C513.022 1.624 513.235 2.11466 513.235 2.712V45.528C513.235 46.1253 513.022 46.616 512.595 47C512.168 47.4267 511.656 47.64 511.059 47.64C510.504 47.64 510.014 47.4267 509.587 47C509.16 46.5733 508.947 46.0827 508.947 45.528V2.712ZM504.659 45.528C504.659 46.0827 504.446 46.5733 504.019 47C503.635 47.4267 503.144 47.64 502.547 47.64C501.95 47.64 501.438 47.4267 501.011 47C500.584 46.616 500.371 46.1253 500.371 45.528V30.552H491.859V45.528C491.859 46.1253 491.646 46.616 491.219 47C490.792 47.4267 490.28 47.64 489.683 47.64C489.128 47.64 488.638 47.4267 488.211 47C487.784 46.5733 487.571 46.0827 487.571 45.528V28.376C487.571 27.7787 487.784 27.288 488.211 26.904C488.638 26.4773 489.128 26.264 489.683 26.264H502.547C503.144 26.264 503.635 26.4773 504.019 26.904C504.446 27.288 504.659 27.7787 504.659 28.376V45.528ZM523.622 45.912C523.451 46.3387 523.174 46.68 522.79 46.936C522.406 47.1493 522 47.256 521.574 47.256C521.403 47.256 521.147 47.2133 520.806 47.128C520.379 46.9573 520.038 46.68 519.782 46.296C519.568 45.912 519.462 45.4853 519.462 45.016C519.462 44.888 519.504 44.6533 519.59 44.312L537.062 0.663998C537.232 0.237331 537.488 -0.104001 537.83 -0.360001C538.214 -0.616002 538.619 -0.744003 539.046 -0.744003C539.302 -0.744003 539.558 -0.680003 539.814 -0.552002C540.368 -0.381335 540.774 0.0239983 541.03 0.663998L558.438 44.312C558.566 44.568 558.63 44.8453 558.63 45.144C558.63 45.5707 558.502 45.976 558.246 46.36C558.032 46.7013 557.712 46.9573 557.286 47.128C556.944 47.2133 556.688 47.256 556.518 47.256C556.091 47.256 555.686 47.128 555.302 46.872C554.918 46.616 554.64 46.296 554.47 45.912L539.046 7.064L523.622 45.912ZM535.91 34.84C535.312 34.84 534.8 34.6267 534.374 34.2C533.99 33.7733 533.798 33.2613 533.798 32.664C533.798 32.0667 533.99 31.576 534.374 31.192C534.8 30.7653 535.312 30.552 535.91 30.552H538.982L537.062 25.816C536.976 25.4747 536.934 25.2187 536.934 25.048C536.934 24.6213 537.04 24.2373 537.253 23.896C537.51 23.512 537.83 23.2347 538.214 23.064C538.47 22.936 538.747 22.872 539.046 22.872C539.472 22.872 539.856 23 540.198 23.256C540.582 23.4693 540.859 23.768 541.03 24.152L544.166 31.832C544.294 32.088 544.358 32.3653 544.358 32.664C544.358 33.2613 544.123 33.7733 543.654 34.2C543.227 34.6267 542.715 34.84 542.118 34.84H535.91ZM532.774 45.912C532.603 46.3387 532.347 46.68 532.006 46.936C531.664 47.1493 531.259 47.256 530.79 47.256C530.619 47.256 530.363 47.2133 530.022 47.128C529.595 46.9573 529.254 46.7013 528.998 46.36C528.784 45.976 528.678 45.5707 528.678 45.144C528.678 44.8453 528.742 44.568 528.87 44.312L530.406 40.408C530.619 40.024 530.896 39.704 531.238 39.448C531.622 39.192 532.006 39.064 532.39 39.064H545.638C546.107 39.064 546.534 39.2133 546.918 39.512C547.302 39.8107 547.558 40.1733 547.686 40.6L549.222 44.312C549.307 44.6533 549.35 44.9093 549.35 45.08C549.35 45.5067 549.222 45.912 548.966 46.296C548.752 46.68 548.454 46.9573 548.07 47.128C547.728 47.2133 547.472 47.256 547.302 47.256C546.832 47.256 546.406 47.1493 546.022 46.936C545.68 46.68 545.424 46.3387 545.254 45.912L544.23 43.416H533.862L532.774 45.912ZM600.45 0.791996C600.919 0.194663 601.516 -0.104004 602.242 -0.104004C602.711 -0.104004 603.138 0.023997 603.522 0.279999C604.119 0.749331 604.418 1.34666 604.418 2.072C604.418 2.49866 604.29 2.904 604.034 3.288L590.466 22.744C590.039 23.384 589.442 23.704 588.674 23.704C588.162 23.704 587.735 23.5547 587.394 23.256C587.18 23.0853 587.01 22.8933 586.882 22.68L573.314 3.288C573.058 2.904 572.93 2.49866 572.93 2.072C572.93 1.34666 573.228 0.749331 573.826 0.279999C574.21 0.023997 574.615 -0.104004 575.042 -0.104004C575.81 -0.104004 576.428 0.194663 576.898 0.791996L588.61 17.752L600.45 0.791996ZM569.41 45.464C569.41 46.0613 569.196 46.5733 568.77 47C568.343 47.4267 567.831 47.64 567.234 47.64C566.636 47.64 566.124 47.4267 565.698 47C565.271 46.5733 565.058 46.0613 565.058 45.464V2.072C565.058 1.47467 565.271 0.962666 565.698 0.535999C566.124 0.10933 566.636 -0.104004 567.234 -0.104004C567.831 -0.104004 568.343 0.10933 568.77 0.535999C569.196 0.962666 569.41 1.47467 569.41 2.072V45.464ZM612.29 45.464C612.29 46.0613 612.076 46.5733 611.65 47C611.223 47.4267 610.69 47.64 610.05 47.64C609.452 47.64 608.94 47.4267 608.514 47C608.13 46.5733 607.938 46.0613 607.938 45.464V2.072C607.938 1.47467 608.13 0.962666 608.514 0.535999C608.94 0.10933 609.452 -0.104004 610.05 -0.104004C610.69 -0.104004 611.223 0.10933 611.65 0.535999C612.076 0.962666 612.29 1.47467 612.29 2.072V45.464ZM603.586 45.464C603.586 46.0613 603.372 46.5733 602.946 47C602.519 47.4267 602.007 47.64 601.41 47.64C600.812 47.64 600.3 47.4267 599.874 47C599.447 46.5733 599.234 46.0613 599.234 45.464V25.304L590.466 37.912C589.954 38.552 589.335 38.872 588.61 38.872C588.183 38.872 587.778 38.744 587.394 38.488L586.882 37.912L578.114 25.304V45.464C578.114 46.0613 577.9 46.5733 577.474 47C577.047 47.4267 576.514 47.64 575.874 47.64C575.276 47.64 574.764 47.4267 574.338 47C573.954 46.5733 573.762 46.0613 573.762 45.464V18.392C573.762 18.0507 573.826 17.7307 573.954 17.432C574.124 17.0907 574.359 16.8347 574.658 16.664C575.042 16.408 575.447 16.28 575.874 16.28C576.642 16.28 577.26 16.5787 577.73 17.176L588.61 32.92L599.618 17.24C600.044 16.6 600.642 16.28 601.41 16.28C602.007 16.28 602.519 16.4933 602.946 16.92C603.372 17.304 603.586 17.7947 603.586 18.392V45.464Z" fill="black"/>
</g>
<defs>
<clipPath id="clip0">
<rect width="613" height="48" fill="white"/>
</clipPath>
</defs>
</svg>
