<svg width="718" height="52" viewBox="0 0 718 52" fill="none" xmlns="http://www.w3.org/2000/svg">
<g clip-path="url(#clip0)">
<path d="M34.2812 33.9688C34.2812 33.1562 34.0312 32.6146 33.5312 32.3438C33.0521 32.0729 32.3438 31.9375 31.4062 31.9375H16.9062V29.6875H31.4062C34.8229 29.6875 36.5312 31.1146 36.5312 33.9688C36.5312 35.5729 36.0625 36.7292 35.125 37.4375C34.1875 38.1458 32.9479 38.5 31.4062 38.5H16.9062V36.25H31.4062C33.3229 36.25 34.2812 35.4896 34.2812 33.9688ZM15.6562 52H13.4062V13.75H31.4062C32.8229 13.75 34.0312 14.1875 35.0312 15.0625C36.0312 15.9167 36.5312 16.9896 36.5312 18.2812C36.5312 19.9896 36.0625 21.2292 35.125 22C34.1875 22.75 32.9479 23.125 31.4062 23.125H16.9062V20.875H31.4062C33.3229 20.875 34.2812 20.0104 34.2812 18.2812C34.2812 17.5729 34.0104 17.0208 33.4688 16.625C32.9271 16.2083 32.2396 16 31.4062 16H15.6562V52ZM16.9062 25.375H31.4062C33.4688 25.375 35.2083 24.7604 36.625 23.5312C38.0625 22.2812 38.7812 20.5312 38.7812 18.2812C38.7812 16.4688 38.0312 14.8854 36.5312 13.5312C35.0521 12.1771 33.3438 11.5 31.4062 11.5H11.1562V52H8.90625V9.25H31.4062C33.9688 9.25 36.2083 10.1562 38.125 11.9688C40.0625 13.7604 41.0312 15.8646 41.0312 18.2812C41.0312 20.1771 40.5833 21.8333 39.6875 23.25C38.8125 24.6667 37.625 25.7604 36.125 26.5312C39.3958 27.6979 41.0312 30.0729 41.0312 33.6562C41.0312 36.4896 40.0938 38.7604 38.2188 40.4688C36.3438 42.1562 34.0729 43 31.4062 43H16.9062V40.75H31.4062C33.4688 40.75 35.2083 40.1354 36.625 38.9062C38.0625 37.6562 38.7812 35.9062 38.7812 33.6562C38.7812 32.1354 38.2396 30.7917 37.1562 29.625C36.0729 28.4583 34.4792 27.7812 32.375 27.5938C32.1667 27.6146 31.8438 27.625 31.4062 27.625H16.9062V25.375ZM45.5312 18.2812C45.5312 21.1979 44.5 23.8333 42.4375 26.1875C44.5 28.4792 45.5312 30.9688 45.5312 33.6562C45.5312 36.2604 44.875 38.6354 43.5625 40.7812C42.2708 42.9062 40.5417 44.5625 38.375 45.75C36.2292 46.9167 33.9062 47.5 31.4062 47.5H16.9062V45.25H31.4062C34.6562 45.25 37.4479 44.1667 39.7812 42C42.1146 39.8125 43.2812 37.0312 43.2812 33.6562C43.2812 32.4479 42.9688 31.1146 42.3438 29.6562C41.7396 28.1771 40.8958 27.0521 39.8125 26.2812C42.125 24.1146 43.2812 21.4479 43.2812 18.2812C43.2812 15.2396 42.0938 12.6042 39.7188 10.375C37.3438 8.125 34.5729 7 31.4062 7H6.65625V52H4.40625V4.75H31.4062C33.8854 4.75 36.2083 5.36458 38.375 6.59375C40.5625 7.80208 42.3021 9.45833 43.5938 11.5625C44.8854 13.6458 45.5312 15.8854 45.5312 18.2812ZM45 26.3125C46.8542 23.8333 47.7812 21.1562 47.7812 18.2812C47.7812 15.4688 47.0312 12.8542 45.5312 10.4375C44.0521 8 42.0521 6.07292 39.5312 4.65625C37.0104 3.21875 34.3021 2.5 31.4062 2.5H2.15625V52H-0.09375V0.25H31.4062C34.6979 0.25 37.7708 1.0625 40.625 2.6875C43.5 4.3125 45.7812 6.52083 47.4688 9.3125C49.1771 12.0833 50.0312 15.0729 50.0312 18.2812C50.0312 21.3438 49.1667 24.0312 47.4375 26.3438C49.1667 28.7396 50.0312 31.1771 50.0312 33.6562C50.0312 36.4479 49.5312 39.0104 48.5312 41.3438C47.5312 43.6562 46.1771 45.5833 44.4688 47.125C42.7812 48.6667 40.8125 49.8646 38.5625 50.7188C36.3125 51.5729 33.9271 52 31.4062 52H16.9062V49.75H31.4062C33.5938 49.75 35.6875 49.3438 37.6875 48.5312C39.6875 47.6979 41.4271 46.5729 42.9062 45.1562C44.3854 43.7396 45.5625 42.0312 46.4375 40.0312C47.3333 38.0312 47.7812 35.9062 47.7812 33.6562C47.7812 32.6562 47.5417 31.4583 47.0625 30.0625C46.6042 28.6458 45.9167 27.3958 45 26.3125ZM72.0938 26.25H85.6562C87.7188 26.25 89.4583 25.5833 90.875 24.25C92.3125 22.9167 93.0312 21.0208 93.0312 18.5625C93.0312 16.75 92.2812 15.125 90.7812 13.6875C89.2812 12.2292 87.5729 11.5 85.6562 11.5H66.3438V52H64.0938V9.25H85.6562C88.1979 9.25 90.4375 10.1979 92.375 12.0938C94.3125 13.9688 95.2812 16.125 95.2812 18.5625C95.2812 21.5625 94.3438 23.9688 92.4688 25.7812C90.5938 27.5938 88.3229 28.5 85.6562 28.5H72.0938V26.25ZM72.0938 30.75H85.6562C88.9062 30.75 91.6979 29.6146 94.0312 27.3438C96.3646 25.0521 97.5312 22.125 97.5312 18.5625C97.5312 15.5 96.3333 12.8125 93.9375 10.5C91.5625 8.16667 88.8021 7 85.6562 7H61.8438V52H59.5938V4.75H85.6562C88.1354 4.75 90.4583 5.38542 92.625 6.65625C94.8125 7.92708 96.5521 9.63542 97.8438 11.7812C99.1354 13.9062 99.7812 16.1667 99.7812 18.5625C99.7812 22.6667 98.3854 26.1042 95.5938 28.875C92.8229 31.625 89.5104 33 85.6562 33H72.0938V30.75ZM72.0938 35.25H85.6562C88.5729 35.25 91.2812 34.5312 93.7812 33.0938C96.2812 31.6562 98.2812 29.6562 99.7812 27.0938C101.281 24.5104 102.031 21.6667 102.031 18.5625C102.031 15.75 101.281 13.1146 99.7812 10.6562C98.3021 8.17708 96.3021 6.19792 93.7812 4.71875C91.2604 3.23958 88.5521 2.5 85.6562 2.5H57.3438V52H55.0938V0.25H85.6562C88.9271 0.25 92 1.09375 94.875 2.78125C97.75 4.44792 100.031 6.69792 101.719 9.53125C103.427 12.3438 104.281 15.3542 104.281 18.5625C104.281 22.2708 103.479 25.5312 101.875 28.3438C100.292 31.1562 98.1354 33.3542 95.4062 34.9375L101.219 52H98.8438L93.2812 36C92.4479 36.3333 91.8125 36.5625 91.375 36.6875L96.5938 52H94.2188L89.125 37.2188C88.9375 37.2604 88.2708 37.3333 87.125 37.4375L91.9688 52H89.5938L84.8125 37.5H82.7812L87.3438 52H84.9688L80.375 37.5H72.0938V35.25ZM70.8438 52H68.5938V13.75H85.6562C87.0521 13.75 88.25 14.2292 89.25 15.1875C90.2708 16.125 90.7812 17.25 90.7812 18.5625C90.7812 22.1875 89.0729 24 85.6562 24H72.0938V21.75H85.6562C86.5521 21.75 87.25 21.5208 87.75 21.0625C88.2708 20.5833 88.5312 19.75 88.5312 18.5625C88.5312 17.8333 88.25 17.2292 87.6875 16.75C87.1458 16.25 86.4688 16 85.6562 16H70.8438V52ZM120.312 17.375C117.896 19.7917 116.688 22.7083 116.688 26.125C116.688 29.5417 117.896 32.4583 120.312 34.875C122.729 37.2917 125.646 38.5 129.062 38.5C132.479 38.5 135.396 37.2917 137.812 34.875C140.229 32.4583 141.438 29.5417 141.438 26.125C141.438 22.7083 140.229 19.7917 137.812 17.375C135.396 14.9583 132.479 13.75 129.062 13.75C125.646 13.75 122.729 14.9583 120.312 17.375ZM115.594 31.8125C114.823 30 114.438 28.1042 114.438 26.125C114.438 24.1458 114.823 22.2604 115.594 20.4688C116.365 18.6562 117.406 17.0938 118.719 15.7812C120.031 14.4688 121.583 13.4271 123.375 12.6562C125.188 11.8854 127.083 11.5 129.062 11.5C131.042 11.5 132.927 11.8854 134.719 12.6562C136.531 13.4271 138.094 14.4688 139.406 15.7812C140.719 17.0938 141.76 18.6562 142.531 20.4688C143.302 22.2604 143.688 24.1458 143.688 26.125C143.688 28.1042 143.302 30 142.531 31.8125C141.76 33.6042 140.719 35.1562 139.406 36.4688C138.094 37.7812 136.531 38.8229 134.719 39.5938C132.927 40.3646 131.042 40.75 129.062 40.75C127.083 40.75 125.188 40.3646 123.375 39.5938C121.583 38.8229 120.031 37.7812 118.719 36.4688C117.406 35.1562 116.365 33.6042 115.594 31.8125ZM114.438 17.6562C112.938 20.2396 112.188 23.0625 112.188 26.125C112.188 29.1875 112.938 32.0104 114.438 34.5938C115.958 37.1771 118.01 39.2292 120.594 40.75C123.177 42.25 126 43 129.062 43C132.125 43 134.948 42.25 137.531 40.75C140.115 39.2292 142.156 37.1771 143.656 34.5938C145.177 32.0104 145.938 29.1875 145.938 26.125C145.938 23.0625 145.177 20.2396 143.656 17.6562C142.156 15.0729 140.115 13.0312 137.531 11.5312C134.948 10.0104 132.125 9.25 129.062 9.25C126 9.25 123.177 10.0104 120.594 11.5312C118.01 13.0312 115.958 15.0729 114.438 17.6562ZM112.5 35.7188C110.792 32.7812 109.938 29.5833 109.938 26.125C109.938 22.6667 110.792 19.4688 112.5 16.5312C114.208 13.5938 116.531 11.2708 119.469 9.5625C122.406 7.85417 125.604 7 129.062 7C132.521 7 135.719 7.85417 138.656 9.5625C141.594 11.2708 143.917 13.5938 145.625 16.5312C147.333 19.4688 148.188 22.6667 148.188 26.125C148.188 29.5833 147.333 32.7812 145.625 35.7188C143.917 38.6562 141.594 40.9792 138.656 42.6875C135.719 44.3958 132.521 45.25 129.062 45.25C125.604 45.25 122.406 44.3958 119.469 42.6875C116.531 40.9792 114.208 38.6562 112.5 35.7188ZM109.375 17.8125C108.25 20.4583 107.688 23.2292 107.688 26.125C107.688 29.0208 108.25 31.7917 109.375 34.4375C110.5 37.0833 112.01 39.3646 113.906 41.2812C115.823 43.1771 118.104 44.6875 120.75 45.8125C123.396 46.9375 126.167 47.5 129.062 47.5C131.958 47.5 134.729 46.9375 137.375 45.8125C140.021 44.6875 142.292 43.1771 144.188 41.2812C146.104 39.3646 147.625 37.0833 148.75 34.4375C149.875 31.7917 150.438 29.0208 150.438 26.125C150.438 23.2292 149.875 20.4583 148.75 17.8125C147.625 15.1667 146.104 12.8958 144.188 11C142.292 9.08333 140.021 7.5625 137.375 6.4375C134.729 5.3125 131.958 4.75 129.062 4.75C126.167 4.75 123.396 5.3125 120.75 6.4375C118.104 7.5625 115.823 9.08333 113.906 11C112.01 12.8958 110.5 15.1667 109.375 17.8125ZM108.594 37.9688C106.49 34.3438 105.438 30.3958 105.438 26.125C105.438 21.8542 106.49 17.9062 108.594 14.2812C110.719 10.6562 113.594 7.79167 117.219 5.6875C120.844 3.5625 124.792 2.5 129.062 2.5C133.333 2.5 137.281 3.5625 140.906 5.6875C144.531 7.79167 147.396 10.6562 149.5 14.2812C151.625 17.9062 152.688 21.8542 152.688 26.125C152.688 30.3958 151.625 34.3438 149.5 37.9688C147.396 41.5938 144.531 44.4688 140.906 46.5938C137.281 48.6979 133.333 49.75 129.062 49.75C124.792 49.75 120.844 48.6979 117.219 46.5938C113.594 44.4688 110.719 41.5938 108.594 37.9688ZM105.219 16.0938C103.865 19.2812 103.188 22.625 103.188 26.125C103.188 29.625 103.865 32.9792 105.219 36.1875C106.594 39.375 108.438 42.125 110.75 44.4375C113.062 46.75 115.812 48.5938 119 49.9688C122.208 51.3229 125.562 52 129.062 52C132.562 52 135.906 51.3229 139.094 49.9688C142.302 48.5938 145.062 46.75 147.375 44.4375C149.688 42.125 151.521 39.375 152.875 36.1875C154.25 32.9792 154.938 29.625 154.938 26.125C154.938 22.625 154.25 19.2812 152.875 16.0938C151.521 12.8854 149.688 10.125 147.375 7.8125C145.062 5.5 142.302 3.66667 139.094 2.3125C135.906 0.9375 132.562 0.25 129.062 0.25C125.562 0.25 122.208 0.9375 119 2.3125C115.812 3.66667 113.062 5.5 110.75 7.8125C108.438 10.125 106.594 12.8854 105.219 16.0938ZM103.156 37.0625C101.677 33.5833 100.938 29.9375 100.938 26.125C100.938 22.3125 101.677 18.6771 103.156 15.2188C104.656 11.7396 106.656 8.75 109.156 6.25C111.677 3.72917 114.667 1.72917 118.125 0.25C121.604 -1.25 125.25 -2 129.062 -2C132.875 -2 136.51 -1.25 139.969 0.25C143.448 1.72917 146.438 3.72917 148.938 6.25C151.458 8.75 153.458 11.7396 154.938 15.2188C156.438 18.6771 157.188 22.3125 157.188 26.125C157.188 29.9375 156.438 33.5833 154.938 37.0625C153.458 40.5208 151.458 43.5104 148.938 46.0312C146.438 48.5312 143.448 50.5208 139.969 52C136.51 53.5 132.875 54.25 129.062 54.25C125.25 54.25 121.604 53.5 118.125 52C114.667 50.5208 111.677 48.5312 109.156 46.0312C106.656 43.5104 104.656 40.5208 103.156 37.0625ZM198.594 27.0938L196.344 23.375V0.25H198.594V27.0938ZM203.094 34.4688L200.844 30.6875V0.25H203.094V34.4688ZM207.594 41.9375L205.344 38.125V0.25H207.594V41.9375ZM175.344 25.1562L177.594 28.875V52H175.344V25.1562ZM170.844 17.7812L173.094 21.5625V52H170.844V17.7812ZM166.344 10.3125L168.594 14.125V52H166.344V10.3125ZM167.125 0.25H169.75L201.562 52H198.938L167.125 0.25ZM172.438 0.25H175.094L206.875 52H204.188L172.438 0.25ZM177.719 0.25H180.344L209.844 48.3438V0.25H212.094V52C212.094 52 211.208 52 209.438 52L177.719 0.25ZM164.094 3.90625V52H161.844V0.25C161.844 0.25 162.74 0.25 164.531 0.25L196.25 52H193.656L164.094 3.90625ZM232.844 36.0938L231.781 40.5312L221.094 0.25H223.406L232.844 36.0938ZM235.188 27.4375L234.031 31.75L225.75 0.25H228.031L235.188 27.4375ZM237.531 18.4688L236.344 22.8438L230.375 0.25H232.719L237.531 18.4688ZM246.438 52H244.094L257.781 0.3125L257.75 0.25H260.125V0.3125L266.219 21.3125L271.812 0.25H274.156L260.438 52H258.094L251.969 31.0312L246.438 52ZM241.75 52H239.438L253.125 0.25H255.438L241.75 52ZM237.094 52H234.781L248.5 0.25H250.781L237.094 52ZM274.438 52H272.094L285.781 0.25H288.125L274.438 52ZM269.75 52H267.438L281.125 0.25H283.438L269.75 52ZM265.094 52H262.781L276.5 0.25H278.781L265.094 52ZM231.281 47.5625L243.812 0.25H246.156L232.438 52H230.094L216.406 0.25H218.75L231.281 47.5625ZM253.156 26.625L259.219 47.75L260.406 43.2812L254.312 22.2188L253.156 26.625ZM255.469 17.8125L261.562 38.875L262.75 34.4688L256.656 13.375L255.469 17.8125ZM257.781 9.0625L263.906 30.125L265.062 25.6875L259 4.5625L257.781 9.0625ZM303.656 52H301.406V0.25H303.656V52ZM299.156 52H296.906V0.25H299.156V52ZM294.656 52H292.406V0.25H294.656V52ZM308.156 40.75H332.094V43H308.156V45.25H332.094V47.5H308.156V49.75H332.094V52H305.906V0.25H332.094V2.5H308.156V4.75H332.094V7H308.156V9.25H332.094V11.5H308.156V20.5H320.438V22.75H308.156V25H320.438V27.25H308.156V29.5H320.438V31.75H308.156V40.75ZM374.406 27.0938L372.156 23.375V0.25H374.406V27.0938ZM378.906 34.4688L376.656 30.6875V0.25H378.906V34.4688ZM383.406 41.9375L381.156 38.125V0.25H383.406V41.9375ZM351.156 25.1562L353.406 28.875V52H351.156V25.1562ZM346.656 17.7812L348.906 21.5625V52H346.656V17.7812ZM342.156 10.3125L344.406 14.125V52H342.156V10.3125ZM342.938 0.25H345.562L377.375 52H374.75L342.938 0.25ZM348.25 0.25H350.906L382.688 52H380L348.25 0.25ZM353.531 0.25H356.156L385.656 48.3438V0.25H387.906V52C387.906 52 387.021 52 385.25 52L353.531 0.25ZM339.906 3.90625V52H337.656V0.25C337.656 0.25 338.552 0.25 340.344 0.25L372.062 52H369.469L339.906 3.90625ZM407.719 0.25H409.969V52H407.719V0.25ZM421.219 0.25H423.469V40.75H441.469V43H423.469V45.25H441.469V47.5H423.469V49.75H441.469V52H421.219V0.25ZM416.719 0.25H418.969V52H416.719V0.25ZM412.219 0.25H414.469V52H412.219V0.25ZM468.812 36.8125L469.719 34.5625H477.406L478.312 36.8125H468.812ZM467.062 41.3125L467.938 39.0625H479.156L480.125 41.3125H467.062ZM465.312 45.8125L466.188 43.5625H480.938L481.875 45.8125H465.312ZM447.031 52H444.594L465.062 0.25H467.5L487.938 52H485.531L466.281 3.28125L447.031 52ZM466.562 8.625L467.844 11.5L451.844 52H449.438L466.562 8.625ZM469.062 14.5625L470.25 17.6562L456.719 52H454.281L469.062 14.5625ZM471.438 20.75L472.625 23.9062L461.531 52H459.125L471.438 20.75ZM502.469 52H500.031L479.594 0.25H482L502.469 52ZM477.156 0.25L497.625 52H495.219L474.75 0.25H477.156ZM472.312 0.25L492.781 52H490.344L469.906 0.25H472.312ZM505.406 2.5V0.25H539.156V2.5H505.406ZM505.406 7V4.75H539.156V7H505.406ZM505.406 11.5V9.25H539.156V11.5H530.156V52H527.906V11.5H525.656V52H523.406V11.5H521.156V52H518.906V11.5H516.656V52H514.406V11.5H505.406ZM593.781 0.25H596.031V52H593.781V0.25ZM544.281 0.25H546.531V52H544.281V0.25ZM589.281 0.25H591.531V52H589.281V0.25ZM584.781 0.25H587.031V52H584.781V0.25ZM580.281 0.25H582.531V52H580.281V31.7188H560.031V52H557.781V0.25H560.031V20.4688H580.281V0.25ZM553.281 0.25H555.531V52H553.281V0.25ZM548.781 0.25H551.031V52H548.781V0.25ZM580.281 29.4688V27.2188H560.031V29.4688H580.281ZM580.281 24.9688V22.7188H560.031V24.9688H580.281ZM624.312 36.8125L625.219 34.5625H632.906L633.812 36.8125H624.312ZM622.562 41.3125L623.438 39.0625H634.656L635.625 41.3125H622.562ZM620.812 45.8125L621.688 43.5625H636.438L637.375 45.8125H620.812ZM602.531 52H600.094L620.562 0.25H623L643.438 52H641.031L621.781 3.28125L602.531 52ZM622.062 8.625L623.344 11.5L607.344 52H604.938L622.062 8.625ZM624.562 14.5625L625.75 17.6562L612.219 52H609.781L624.562 14.5625ZM626.938 20.75L628.125 23.9062L617.031 52H614.625L626.938 20.75ZM657.969 52H655.531L635.094 0.25H637.5L657.969 52ZM632.656 0.25L653.125 52H650.719L630.25 0.25H632.656ZM627.812 0.25L648.281 52H645.844L625.406 0.25H627.812ZM699.156 33.125L701.406 28.875V52H699.156V33.125ZM703.656 24.5L705.906 20.25V52H703.656V24.5ZM708.156 16L710.406 11.7188V52H708.156V16ZM693.062 32.0625L691.781 29.7188L707.281 0.25H709.812L693.062 32.0625ZM690.469 27.1562L689.156 24.7812L702.156 0.25H704.719L690.469 27.1562ZM675.406 29.125L677.656 33.375V52H675.406V29.125ZM670.906 20.5625L673.156 24.8125V52H670.906V20.5625ZM666.406 12L668.656 16.2812V52H666.406V12ZM684.594 38.5H682.062L664.156 4.53125V52H661.906V0.25H664.438L684.594 38.5ZM689.688 38.5H687.125L667 0.25H669.562L689.688 38.5ZM712.656 4.53125L694.75 38.5H692.188L672.094 0.25H674.625L693.5 36.125L712.344 0.25H714.906V52H712.656V4.53125Z" fill="black"/>
</g>
<defs>
<clipPath id="clip0">
<rect width="718" height="52" fill="white"/>
</clipPath>
</defs>
</svg>
