<svg width="583" height="48" viewBox="0 0 583 48" fill="none" xmlns="http://www.w3.org/2000/svg">
<g clip-path="url(#clip0)">
<path d="M0.12 1.176H18.232C20.8347 1.176 23.1173 1.752 25.08 2.904C27.0427 4.056 28.5573 5.656 29.624 7.704C30.6907 9.70933 31.224 12.0133 31.224 14.616C31.224 16.536 30.8613 18.3493 30.136 20.056C29.4533 21.7627 28.408 23.1067 27 24.088C28.4933 25.112 29.6453 26.4347 30.456 28.056C31.3093 29.6773 31.736 31.4053 31.736 33.24C31.736 35.7573 31.1173 38.0827 29.88 40.216C28.6853 42.3067 27.0427 43.9707 24.952 45.208C22.904 46.4027 20.664 47 18.232 47H0.12V1.176ZM9.336 19.544H17.464C18.744 19.544 19.768 19.096 20.536 18.2C21.304 17.304 21.688 16.216 21.688 14.936C21.688 13.6133 21.304 12.5253 20.536 11.672C19.768 10.776 18.744 10.328 17.464 10.328H9.336V19.544ZM9.336 37.848H17.464C18.7867 37.848 19.8747 37.4 20.728 36.504C21.624 35.608 22.072 34.52 22.072 33.24C22.072 31.96 21.624 30.8933 20.728 30.04C19.8747 29.144 18.7867 28.696 17.464 28.696H9.336V37.848ZM53.438 29.528H49.022V47H39.87V1.24H57.918C60.7767 1.24 63.23 1.90133 65.278 3.224C67.326 4.54666 68.862 6.27466 69.886 8.408C70.91 10.4987 71.422 12.7387 71.422 15.128C71.422 18.1147 70.6327 20.824 69.054 23.256C67.4753 25.688 65.2567 27.3093 62.398 28.12L73.022 47H62.654L53.438 29.528ZM57.086 20.632C58.5793 20.632 59.7313 20.1413 60.542 19.16C61.3527 18.136 61.758 16.92 61.758 15.512C61.758 14.104 61.3527 12.9093 60.542 11.928C59.7313 10.904 58.5793 10.392 57.086 10.392H49.022V20.632H57.086ZM101.136 47.64C96.1013 47.64 91.792 46.5307 88.208 44.312C84.6667 42.0933 82 39.192 80.208 35.608C78.416 31.9813 77.52 28.12 77.52 24.024C77.52 19.9707 78.416 16.152 80.208 12.568C82 8.94133 84.6667 6.01867 88.208 3.8C91.792 1.58133 96.1013 0.471996 101.136 0.471996C106.171 0.471996 110.459 1.58133 114 3.8C117.584 6.01867 120.272 8.94133 122.064 12.568C123.856 16.152 124.752 19.9707 124.752 24.024C124.752 28.12 123.856 31.9813 122.064 35.608C120.272 39.192 117.584 42.0933 114 44.312C110.459 46.5307 106.171 47.64 101.136 47.64ZM101.136 38.168C104.037 38.168 106.533 37.5067 108.624 36.184C110.715 34.8187 112.272 33.0693 113.296 30.936C114.363 28.76 114.896 26.456 114.896 24.024C114.896 21.592 114.363 19.288 113.296 17.112C112.272 14.936 110.715 13.1867 108.624 11.864C106.533 10.5413 104.037 9.88 101.136 9.88C98.2347 9.88 95.7387 10.5413 93.648 11.864C91.6 13.1867 90.0427 14.936 88.976 17.112C87.952 19.2453 87.44 21.5493 87.44 24.024C87.44 26.456 87.952 28.76 88.976 30.936C90.0427 33.0693 91.6 34.8187 93.648 36.184C95.7387 37.5067 98.2347 38.168 101.136 38.168ZM142.46 47H133.308V0.279999H135.74L158.844 27.16V1.304H168.06V47.96H165.628L142.46 22.104V47ZM173.634 1.24H183.938L193.154 24.6L202.114 1.688H202.562L211.522 24.6L220.738 1.24H231.042L212.354 47.768H210.69L202.306 27.48L193.986 47.96H192.386L173.634 1.24ZM236.62 47V1.24H259.532V10.392H245.772V19.544H257.804V28.696H245.772V37.848H260.3V47H236.62ZM278.022 47H268.87V0.279999H271.302L294.406 27.16V1.304H303.622V47.96H301.19L278.022 22.104V47ZM359.46 1.24V37.848H373.988V47H350.308V1.24H359.46ZM397.038 -0.424004H397.998L417.262 47H406.958L405.102 42.072H389.934L388.142 47H377.774L397.038 -0.424004ZM401.71 33.496L397.55 21.592L393.262 33.496H401.71ZM428.235 47V10.392H416.843V1.304H448.779V10.392H437.387V47H428.235ZM478.531 47V28.696H464.835V47H455.683V1.24H464.835V19.544H478.531V1.24H487.683V47H478.531ZM513.163 -0.424004H514.123L533.387 47H523.083L521.227 42.072H506.059L504.267 47H493.899L513.163 -0.424004ZM517.835 33.496L513.675 21.592L509.387 33.496H517.835ZM578.848 0.535999H581.728V47H572.448L572.512 21.464L560.8 33.752L549.088 21.464V47H539.808V0.535999H542.752L560.8 20.632L578.848 0.535999Z" fill="black"/>
</g>
<defs>
<clipPath id="clip0">
<rect width="583" height="48" fill="white"/>
</clipPath>
</defs>
</svg>
