<svg width="292" height="59" viewBox="0 0 292 59" fill="none" xmlns="http://www.w3.org/2000/svg">
<g clip-path="url(#clip0)">
<path d="M2.57812 57V22.875H14.8359C19.2266 22.875 22.5625 23.6797 24.8438 25.2891C27.1406 26.8984 28.2891 29.2344 28.2891 32.2969C28.2891 34.0625 27.8828 35.5703 27.0703 36.8203C26.2578 38.0703 25.0625 38.9922 23.4844 39.5859C25.2656 40.0547 26.6328 40.9297 27.5859 42.2109C28.5391 43.4922 29.0156 45.0547 29.0156 46.8984C29.0156 50.2422 27.9531 52.7578 25.8281 54.4453C23.7188 56.1172 20.5859 56.9688 16.4297 57H2.57812ZM10.8047 42.4922V50.6719H16.1953C17.6797 50.6719 18.8203 50.3359 19.6172 49.6641C20.4141 48.9766 20.8125 48.0156 20.8125 46.7812C20.8125 43.9375 19.3984 42.5078 16.5703 42.4922H10.8047ZM10.8047 37.1016H15.0938C16.8906 37.0859 18.1719 36.7578 18.9375 36.1172C19.7031 35.4766 20.0859 34.5312 20.0859 33.2812C20.0859 31.8438 19.6719 30.8125 18.8438 30.1875C18.0156 29.5469 16.6797 29.2266 14.8359 29.2266H10.8047V37.1016ZM37.2291 50.6719H51.5494V57H29.0025V22.875H37.2291V50.6719Z" fill="black"/>
<path d="M62.3747 49.3359C63.6247 49.3359 64.6637 49.7109 65.4919 50.4609C66.32 51.1953 66.7341 52.1406 66.7341 53.2969C66.7341 54.4531 66.32 55.4062 65.4919 56.1562C64.6637 56.8906 63.6247 57.2578 62.3747 57.2578C61.1091 57.2578 60.0622 56.8828 59.2341 56.1328C58.4216 55.3828 58.0153 54.4375 58.0153 53.2969C58.0153 52.1562 58.4216 51.2109 59.2341 50.4609C60.0622 49.7109 61.1091 49.3359 62.3747 49.3359Z" fill="#00D1FF"/>
</g>
<defs>
<clipPath id="clip0">
<rect width="292" height="59" fill="white"/>
</clipPath>
</defs>
</svg>
