<svg width="292" height="59" viewBox="0 0 292 59" fill="none" xmlns="http://www.w3.org/2000/svg">
<g clip-path="url(#clip0)">
<path d="M25.7578 44.5312C25.7578 48.6875 24.8984 51.8828 23.1797 54.1172C21.4609 56.3516 19.0391 57.4688 15.9141 57.4688C13.3359 57.4688 11.2578 56.4453 9.67969 54.3984L9.35156 57H2.27344V21H10.1719V33.6797C11.6406 32.0078 13.5391 31.1719 15.8672 31.1719C19.0234 31.1719 21.4609 32.3047 23.1797 34.5703C24.8984 36.8359 25.7578 40.0234 25.7578 44.1328V44.5312ZM17.8359 44.0391C17.8359 41.6016 17.5078 39.8672 16.8516 38.8359C16.2109 37.7891 15.2188 37.2656 13.875 37.2656C12.0938 37.2656 10.8594 37.9453 10.1719 39.3047V49.3828C10.8438 50.7266 12.0938 51.3984 13.9219 51.3984C15.7812 51.3984 16.9609 50.4922 17.4609 48.6797C17.7109 47.7891 17.8359 46.2422 17.8359 44.0391ZM40.0416 38.7891L37.44 38.6016C34.9556 38.6016 33.3619 39.3828 32.6588 40.9453V57H24.7603V31.6406H32.1666L32.4244 34.8984C33.7525 32.4141 35.6041 31.1719 37.9791 31.1719C38.8228 31.1719 39.5572 31.2656 40.1822 31.4531L40.0416 38.7891ZM36.4894 44.0859C36.4894 41.5547 36.9816 39.3047 37.9659 37.3359C38.9503 35.3516 40.3644 33.8281 42.2081 32.7656C44.0519 31.7031 46.2159 31.1719 48.7003 31.1719C52.4972 31.1719 55.4894 32.3516 57.6769 34.7109C59.8644 37.0547 60.9581 40.25 60.9581 44.2969V44.5781C60.9581 48.5312 59.8566 51.6719 57.6534 54C55.4659 56.3125 52.4972 57.4688 48.7472 57.4688C45.1378 57.4688 42.2394 56.3906 40.0519 54.2344C37.8644 52.0625 36.6847 49.125 36.5128 45.4219L36.4894 44.0859ZM44.3878 44.5781C44.3878 46.9219 44.755 48.6406 45.4894 49.7344C46.2238 50.8281 47.3097 51.375 48.7472 51.375C51.5597 51.375 52.9972 49.2109 53.0597 44.8828V44.0859C53.0597 39.5391 51.6066 37.2656 48.7003 37.2656C46.0597 37.2656 44.63 39.2266 44.4113 43.1484L44.3878 44.5781ZM67.1325 31.6406L67.3903 34.6172C69.1403 32.3203 71.5544 31.1719 74.6325 31.1719C77.2731 31.1719 79.2419 31.9609 80.5387 33.5391C81.8512 35.1172 82.5309 37.4922 82.5778 40.6641V57H74.6559V40.9922C74.6559 39.7109 74.3981 38.7734 73.8825 38.1797C73.3669 37.5703 72.4294 37.2656 71.07 37.2656C69.5231 37.2656 68.3747 37.875 67.6247 39.0938V57H59.7262V31.6406H67.1325ZM104.315 46.5938L106.869 31.6406H114.44L108.463 57H101.783L97.5881 41.9531L93.3694 57H86.6897L80.7131 31.6406H88.2834L90.7913 46.9453L94.8225 31.6406H100.33L104.315 46.5938ZM124.997 57.4688C121.106 57.4688 117.958 56.3125 115.552 54C113.145 51.6719 111.942 48.6484 111.942 44.9297V44.2734C111.942 41.6797 112.419 39.3906 113.372 37.4062C114.341 35.4219 115.747 33.8906 117.591 32.8125C119.434 31.7188 121.622 31.1719 124.153 31.1719C127.716 31.1719 130.528 32.2812 132.591 34.5C134.653 36.7031 135.684 39.7812 135.684 43.7344V46.8047H119.981C120.262 48.2266 120.88 49.3438 121.833 50.1562C122.786 50.9688 124.02 51.375 125.536 51.375C128.036 51.375 129.989 50.5 131.395 48.75L135.005 53.0156C134.02 54.375 132.622 55.4609 130.809 56.2734C129.012 57.0703 127.075 57.4688 124.997 57.4688ZM124.106 37.2656C121.794 37.2656 120.419 38.7969 119.981 41.8594H127.95V41.25C127.981 39.9844 127.661 39.0078 126.989 38.3203C126.317 37.6172 125.356 37.2656 124.106 37.2656ZM141.577 31.6406L141.835 34.6172C143.585 32.3203 145.999 31.1719 149.077 31.1719C151.718 31.1719 153.687 31.9609 154.984 33.5391C156.296 35.1172 156.976 37.4922 157.023 40.6641V57H149.101V40.9922C149.101 39.7109 148.843 38.7734 148.327 38.1797C147.812 37.5703 146.874 37.2656 145.515 37.2656C143.968 37.2656 142.82 37.875 142.07 39.0938V57H134.171V31.6406H141.577ZM175.161 57H167.239V21H175.161V57ZM189.773 57C189.491 56.4844 189.241 55.7266 189.023 54.7266C187.569 56.5547 185.538 57.4688 182.929 57.4688C180.538 57.4688 178.507 56.75 176.835 55.3125C175.163 53.8594 174.327 52.0391 174.327 49.8516C174.327 47.1016 175.343 45.0234 177.374 43.6172C179.405 42.2109 182.358 41.5078 186.233 41.5078H188.671V40.1719C188.671 37.8438 187.663 36.6797 185.648 36.6797C183.773 36.6797 182.835 37.6016 182.835 39.4453H174.937C174.937 36.9922 175.976 35 178.054 33.4688C180.148 31.9375 182.812 31.1719 186.046 31.1719C189.28 31.1719 191.835 31.9609 193.71 33.5391C195.585 35.1172 196.546 37.2812 196.593 40.0312V51.2578C196.624 53.5859 196.983 55.3672 197.671 56.6016V57H189.773ZM184.827 51.8438C185.812 51.8438 186.624 51.6328 187.265 51.2109C187.921 50.7891 188.39 50.3125 188.671 49.7812V45.7266H186.374C183.624 45.7266 182.249 46.9609 182.249 49.4297C182.249 50.1484 182.491 50.7344 182.976 51.1875C183.46 51.625 184.077 51.8438 184.827 51.8438ZM205.627 25.3359V31.6406H209.798V37.125H205.627V48.7266C205.627 49.6797 205.798 50.3438 206.142 50.7188C206.486 51.0938 207.166 51.2812 208.181 51.2812C208.962 51.2812 209.619 51.2344 210.15 51.1406V56.7891C208.728 57.2422 207.244 57.4688 205.697 57.4688C202.978 57.4688 200.97 56.8281 199.673 55.5469C198.377 54.2656 197.728 52.3203 197.728 49.7109V37.125H194.494V31.6406H197.728V25.3359H205.627ZM216.09 34.3594C217.777 32.2344 219.934 31.1719 222.559 31.1719C225.356 31.1719 227.465 32 228.887 33.6562C230.309 35.3125 231.035 37.7578 231.067 40.9922V57H223.145V41.1797C223.145 39.8359 222.871 38.8516 222.324 38.2266C221.777 37.5859 220.848 37.2656 219.535 37.2656C217.91 37.2656 216.762 37.7812 216.09 38.8125V57H208.192V21H216.09V34.3594ZM245.186 57C244.905 56.4844 244.655 55.7266 244.436 54.7266C242.983 56.5547 240.952 57.4688 238.342 57.4688C235.952 57.4688 233.921 56.75 232.249 55.3125C230.577 53.8594 229.741 52.0391 229.741 49.8516C229.741 47.1016 230.757 45.0234 232.788 43.6172C234.819 42.2109 237.772 41.5078 241.647 41.5078H244.085V40.1719C244.085 37.8438 243.077 36.6797 241.061 36.6797C239.186 36.6797 238.249 37.6016 238.249 39.4453H230.35C230.35 36.9922 231.389 35 233.467 33.4688C235.561 31.9375 238.225 31.1719 241.46 31.1719C244.694 31.1719 247.249 31.9609 249.124 33.5391C250.999 35.1172 251.96 37.2812 252.007 40.0312V51.2578C252.038 53.5859 252.397 55.3672 253.085 56.6016V57H245.186ZM240.241 51.8438C241.225 51.8438 242.038 51.6328 242.678 51.2109C243.335 50.7891 243.803 50.3125 244.085 49.7812V45.7266H241.788C239.038 45.7266 237.663 46.9609 237.663 49.4297C237.663 50.1484 237.905 50.7344 238.389 51.1875C238.874 51.625 239.491 51.8438 240.241 51.8438ZM259.306 31.6406L259.564 34.6172C261.361 32.3203 263.775 31.1719 266.806 31.1719C270.009 31.1719 272.173 32.4453 273.298 34.9922C275.017 32.4453 277.501 31.1719 280.751 31.1719C285.892 31.1719 288.533 34.2812 288.673 40.5V57H280.751V40.9922C280.751 39.6953 280.533 38.75 280.095 38.1562C279.658 37.5625 278.861 37.2656 277.704 37.2656C276.142 37.2656 274.978 37.9609 274.212 39.3516L274.236 39.6797V57H266.314V41.0391C266.314 39.7109 266.103 38.75 265.681 38.1562C265.259 37.5625 264.454 37.2656 263.267 37.2656C261.751 37.2656 260.595 37.9609 259.798 39.3516V57H251.9V31.6406H259.306Z" fill="black"/>
<path d="M161.744 49.3359C162.994 49.3359 164.033 49.7109 164.861 50.4609C165.689 51.1953 166.103 52.1406 166.103 53.2969C166.103 54.4531 165.689 55.4062 164.861 56.1562C164.033 56.8906 162.994 57.2578 161.744 57.2578C160.478 57.2578 159.432 56.8828 158.603 56.1328C157.791 55.3828 157.385 54.4375 157.385 53.2969C157.385 52.1562 157.791 51.2109 158.603 50.4609C159.432 49.7109 160.478 49.3359 161.744 49.3359Z" fill="#00D1FF"/>
</g>
<defs>
<clipPath id="clip0">
<rect width="292" height="59" fill="white"/>
</clipPath>
</defs>
</svg>
